<?xml version="1.0" standalone="no"?>
<!DOCTYPE svg PUBLIC "-//W3C//DTD SVG 20010904//EN"
 "http://www.w3.org/TR/2001/REC-SVG-20010904/DTD/svg10.dtd">
<svg version="1.0" xmlns="http://www.w3.org/2000/svg"
 width="700.000000pt" height="700.000000pt" viewBox="0 0 700.000000 700.000000"
 preserveAspectRatio="xMidYMid meet">
<metadata>
</metadata>
<g transform="translate(0.000000,700.000000) scale(0.100000,-0.100000)"
fill="#000000" stroke="none">
<path d="M3280 6994 c-19 -2 -84 -9 -145 -14 -568 -55 -1152 -272 -1633 -607
-306 -213 -607 -507 -827 -808 -362 -496 -581 -1063 -657 -1700 -17 -144 -17
-586 0 -730 86 -722 356 -1355 810 -1895 107 -127 353 -368 479 -467 537 -426
1134 -673 1828 -755 144 -17 586 -17 730 0 694 82 1291 329 1828 755 126 99
372 340 479 467 454 540 724 1173 810 1895 17 144 17 586 0 730 -86 722 -356
1355 -810 1895 -107 127 -353 368 -479 467 -532 423 -1127 670 -1813 753 -88
11 -538 21 -600 14z m-1320 -1862 c64 -32 75 -67 73 -227 -3 -173 -16 -368
-51 -775 -25 -291 -27 -353 -26 -810 0 -412 3 -518 18 -630 31 -240 31 -270 4
-310 -35 -52 -83 -80 -136 -80 -61 0 -102 28 -137 92 -15 29 -29 55 -31 56 -1
2 -22 -9 -46 -26 -65 -44 -153 -86 -248 -118 -79 -26 -97 -28 -250 -29 -143 0
-175 3 -244 23 -277 80 -484 289 -572 577 -27 85 -28 100 -28 285 0 162 4 210
21 286 72 307 238 533 478 649 138 66 202 80 390 80 204 0 262 -16 384 -105
46 -34 86 -59 89 -56 3 3 9 97 13 208 17 427 39 732 59 808 21 77 76 120 155
120 28 0 65 -8 85 -18z m919 -161 c69 -36 121 -115 121 -186 0 -41 -22 -97
-52 -131 -85 -96 -223 -100 -310 -7 -97 102 -65 257 67 326 42 23 127 21 174
-2z m3106 -201 c67 -65 79 -116 83 -365 l4 -221 106 14 c151 19 347 12 398
-15 49 -25 74 -59 84 -115 16 -81 -13 -150 -80 -195 -30 -21 -44 -23 -178 -23
-80 0 -186 -5 -235 -11 l-89 -12 6 -146 c23 -522 36 -1118 26 -1199 -13 -106
-49 -187 -99 -220 -77 -50 -199 -15 -240 70 -19 41 -20 55 -14 293 3 154 -1
419 -11 690 -9 242 -16 456 -16 476 l0 35 -177 13 c-98 7 -200 17 -228 22 -97
18 -152 94 -141 192 7 64 36 109 90 138 l44 23 199 -15 c109 -9 200 -14 202
-12 2 1 -1 105 -7 231 -12 250 -9 280 35 333 38 45 78 60 146 56 49 -3 62 -8
92 -37z m-1500 -584 c263 -73 405 -176 405 -293 0 -87 -55 -160 -128 -170 -59
-8 -79 0 -159 60 -87 66 -137 84 -269 98 -141 15 -190 1 -279 -82 -147 -138
-297 -444 -324 -660 -39 -305 132 -518 446 -560 134 -18 209 0 405 101 97 49
169 80 188 80 94 0 174 -110 149 -204 -28 -104 -277 -247 -523 -301 -160 -35
-399 -4 -549 71 -146 74 -288 212 -356 346 -64 127 -83 217 -85 383 -1 206 35
356 139 570 151 312 353 523 556 580 82 23 268 14 384 -19z m-1677 -50 c45
-23 80 -68 92 -117 12 -47 8 -175 -20 -624 -6 -92 -7 -326 -4 -550 l6 -390
-24 -35 c-39 -56 -82 -80 -148 -80 -96 0 -164 64 -174 163 -12 114 -16 731 -7
892 6 94 15 267 21 385 6 118 13 229 16 247 6 40 48 91 89 109 40 18 119 17
153 0z"/>
<path d="M1065 3839 c-311 -48 -464 -266 -465 -660 0 -99 4 -141 20 -191 50
-163 203 -317 362 -364 139 -41 328 -16 437 59 74 50 181 139 191 158 6 10 10
166 10 374 0 401 3 384 -80 478 -55 62 -113 101 -188 126 -72 24 -203 34 -287
20z"/>
</g>
</svg>
